HIERARCHY
ROOT mixamorig:Hips
{
	OFFSET 0.000000 77.714516 0.000000
	CHANNELS 6 Xposition Yposition Zposition Xrotation Yrotation Zrotation
	JOINT mixamorig:Spine
	{
		OFFSET 0.000000 14.685699 -1.734700
		CHANNELS 3 Xrotation Yrotation Zrotation
		JOINT mixamorig:Spine1
		{
			OFFSET 0.000000 17.133286 -2.023825
			CHANNELS 3 Xrotation Yrotation Zrotation
			JOINT mixamorig:Spine2
			{
				OFFSET 0.000000 19.580956 -2.312950
				CHANNELS 3 Xrotation Yrotation Zrotation
				JOINT mixamorig:Neck
				{
					OFFSET 0.000000 22.028564 -2.602067
					CHANNELS 3 Xrotation Yrotation Zrotation
					JOINT mixamorig:Head
					{
						OFFSET 0.000000 7.772293 1.167700
						CHANNELS 3 Xrotation Yrotation Zrotation
						JOINT mixamorig:HeadTop_End
						{
							OFFSET 0.000000 26.518204 3.983900
							CHANNELS 3 Xrotation Yrotation Zrotation
							End Site
							{
								OFFSET 0.000000 26.815781 0.000000
							}
						}
					}
				}
				JOINT mixamorig:LeftShoulder
				{
					OFFSET 11.646600 18.513336 -2.583780
					CHANNELS 3 Xrotation Yrotation Zrotation
					JOINT mixamorig:LeftArm
					{
						OFFSET 23.544209 -6.614426 0.036475
						CHANNELS 3 Xrotation Yrotation Zrotation
						JOINT mixamorig:LeftForeArm
						{
							OFFSET 22.756695 0.000000 -0.000001
							CHANNELS 3 Xrotation Yrotation Zrotation
							JOINT mixamorig:LeftHand
							{
								OFFSET 32.238304 0.000000 -0.000001
								CHANNELS 3 Xrotation Yrotation Zrotation
								JOINT mixamorig:LeftHandThumb1
								{
									OFFSET 4.391930 -2.771759 4.066533
									CHANNELS 3 Xrotation Yrotation Zrotation
									JOINT mixamorig:LeftHandThumb2
									{
										OFFSET 4.087418 -2.359879 2.359871
										CHANNELS 3 Xrotation Yrotation Zrotation
										JOINT mixamorig:LeftHandThumb3
										{
											OFFSET 4.044945 -2.335342 2.335349
											CHANNELS 3 Xrotation Yrotation Zrotation
											JOINT mixamorig:LeftHandThumb4
											{
												OFFSET 3.242561 -1.872101 1.872095
												CHANNELS 3 Xrotation Yrotation Zrotation
												End Site
												{
													OFFSET 2.876892 -1.863678 2.402885
												}
											}
										}
									}
								}
								JOINT mixamorig:LeftHandIndex1
								{
									OFFSET 13.080666 -0.495590 3.860911
									CHANNELS 3 Xrotation Yrotation Zrotation
									JOINT mixamorig:LeftHandIndex2
									{
										OFFSET 4.467804 0.000000 0.000000
										CHANNELS 3 Xrotation Yrotation Zrotation
										JOINT mixamorig:LeftHandIndex3
										{
											OFFSET 4.434097 0.000000 0.000000
											CHANNELS 3 Xrotation Yrotation Zrotation
											JOINT mixamorig:LeftHandIndex4
											{
												OFFSET 3.589699 0.000000 0.000000
												CHANNELS 3 Xrotation Yrotation Zrotation
												End Site
												{
													OFFSET 3.589706 0.000000 0.000200
												}
											}
										}
									}
								}
								JOINT mixamorig:LeftHandMiddle1
								{
									OFFSET 12.178093 0.000000 0.000000
									CHANNELS 3 Xrotation Yrotation Zrotation
									JOINT mixamorig:LeftHandMiddle2
									{
										OFFSET 5.491508 0.000000 0.000000
										CHANNELS 3 Xrotation Yrotation Zrotation
										JOINT mixamorig:LeftHandMiddle3
										{
											OFFSET 5.202805 0.000000 0.000000
											CHANNELS 3 Xrotation Yrotation Zrotation
											JOINT mixamorig:LeftHandMiddle4
											{
												OFFSET 4.456505 0.000000 0.000000
												CHANNELS 3 Xrotation Yrotation Zrotation
												End Site
												{
													OFFSET 4.456505 -0.000046 0.006499
												}
											}
										}
									}
								}
								JOINT mixamorig:LeftHandRing1
								{
									OFFSET 11.850945 -0.053970 -3.835439
									CHANNELS 3 Xrotation Yrotation Zrotation
									JOINT mixamorig:LeftHandRing2
									{
										OFFSET 4.691414 0.000000 0.000000
										CHANNELS 3 Xrotation Yrotation Zrotation
										JOINT mixamorig:LeftHandRing3
										{
											OFFSET 4.518303 0.000000 0.000000
											CHANNELS 3 Xrotation Yrotation Zrotation
											JOINT mixamorig:LeftHandRing4
											{
												OFFSET 3.568130 0.000000 0.000000
												CHANNELS 3 Xrotation Yrotation Zrotation
												End Site
												{
													OFFSET 3.568100 -0.000168 0.014599
												}
											}
										}
									}
								}
								JOINT mixamorig:LeftHandPinky1
								{
									OFFSET 10.491814 -0.458572 -7.033705
									CHANNELS 3 Xrotation Yrotation Zrotation
									JOINT mixamorig:LeftHandPinky2
									{
										OFFSET 4.452301 0.000000 0.000000
										CHANNELS 3 Xrotation Yrotation Zrotation
										JOINT mixamorig:LeftHandPinky3
										{
											OFFSET 3.536598 0.000000 0.000000
											CHANNELS 3 Xrotation Yrotation Zrotation
											JOINT mixamorig:LeftHandPinky4
											{
												OFFSET 2.823502 0.000000 0.000000
												CHANNELS 3 Xrotation Yrotation Zrotation
												End Site
												{
													OFFSET 2.823502 0.000000 0.000600
												}
											}
										}
									}
								}
							}
						}
					}
				}
				JOINT mixamorig:RightShoulder
				{
					OFFSET -11.646600 18.513351 -2.620334
					CHANNELS 3 Xrotation Yrotation Zrotation
					JOINT mixamorig:RightArm
					{
						OFFSET -23.544205 -6.614441 -0.036501
						CHANNELS 3 Xrotation Yrotation Zrotation
						JOINT mixamorig:RightForeArm
						{
							OFFSET -22.759399 0.000000 0.000001
							CHANNELS 3 Xrotation Yrotation Zrotation
							JOINT mixamorig:RightHand
							{
								OFFSET -32.238106 0.000000 0.000001
								CHANNELS 3 Xrotation Yrotation Zrotation
								JOINT mixamorig:RightHandThumb1
								{
									OFFSET -4.492897 -2.767944 4.026622
									CHANNELS 3 Xrotation Yrotation Zrotation
									JOINT mixamorig:RightHandThumb2
									{
										OFFSET -4.113335 -2.374832 2.374833
										CHANNELS 3 Xrotation Yrotation Zrotation
										JOINT mixamorig:RightHandThumb3
										{
											OFFSET -4.066299 -2.347672 2.347678
											CHANNELS 3 Xrotation Yrotation Zrotation
											JOINT mixamorig:RightHandThumb4
											{
												OFFSET -3.138756 -1.812164 1.812160
												CHANNELS 3 Xrotation Yrotation Zrotation
												End Site
												{
													OFFSET -2.613274 -1.789185 2.527684
												}
											}
										}
									}
								}
								JOINT mixamorig:RightHandIndex1
								{
									OFFSET -12.930191 -0.141510 3.700550
									CHANNELS 3 Xrotation Yrotation Zrotation
									JOINT mixamorig:RightHandIndex2
									{
										OFFSET -4.764015 0.000000 0.000000
										CHANNELS 3 Xrotation Yrotation Zrotation
										JOINT mixamorig:RightHandIndex3
										{
											OFFSET -4.419807 0.000000 0.000000
											CHANNELS 3 Xrotation Yrotation Zrotation
											JOINT mixamorig:RightHandIndex4
											{
												OFFSET -3.701851 0.000000 0.000000
												CHANNELS 3 Xrotation Yrotation Zrotation
												End Site
												{
													OFFSET -3.701797 0.000153 -0.018699
												}
											}
										}
									}
								}
								JOINT mixamorig:RightHandMiddle1
								{
									OFFSET -12.168388 0.000000 0.000001
									CHANNELS 3 Xrotation Yrotation Zrotation
									JOINT mixamorig:RightHandMiddle2
									{
										OFFSET -5.385834 0.000000 0.000000
										CHANNELS 3 Xrotation Yrotation Zrotation
										JOINT mixamorig:RightHandMiddle3
										{
											OFFSET -5.321609 0.000000 0.000000
											CHANNELS 3 Xrotation Yrotation Zrotation
											JOINT mixamorig:RightHandMiddle4
											{
												OFFSET -4.501015 0.000000 0.000000
												CHANNELS 3 Xrotation Yrotation Zrotation
												End Site
												{
													OFFSET -4.500992 -0.000168 0.011299
												}
											}
										}
									}
								}
								JOINT mixamorig:RightHandRing1
								{
									OFFSET -11.815239 0.302551 -3.905540
									CHANNELS 3 Xrotation Yrotation Zrotation
									JOINT mixamorig:RightHandRing2
									{
										OFFSET -4.583313 0.000000 0.000000
										CHANNELS 3 Xrotation Yrotation Zrotation
										JOINT mixamorig:RightHandRing3
										{
											OFFSET -4.612907 0.000000 0.000000
											CHANNELS 3 Xrotation Yrotation Zrotation
											JOINT mixamorig:RightHandRing4
											{
												OFFSET -3.358940 0.000000 0.000000
												CHANNELS 3 Xrotation Yrotation Zrotation
												End Site
												{
													OFFSET -3.358910 -0.000198 0.016799
												}
											}
										}
									}
								}
								JOINT mixamorig:RightHandPinky1
								{
									OFFSET -10.511444 -0.263382 -6.996516
									CHANNELS 3 Xrotation Yrotation Zrotation
									JOINT mixamorig:RightHandPinky2
									{
										OFFSET -4.477509 0.000000 0.000000
										CHANNELS 3 Xrotation Yrotation Zrotation
										JOINT mixamorig:RightHandPinky3
										{
											OFFSET -3.497902 0.000000 0.000000
											CHANNELS 3 Xrotation Yrotation Zrotation
											JOINT mixamorig:RightHandPinky4
											{
												OFFSET -2.797302 0.000000 0.000000
												CHANNELS 3 Xrotation Yrotation Zrotation
												End Site
												{
													OFFSET -2.797302 -0.000031 0.002200
												}
											}
										}
									}
								}
							}
						}
					}
				}
			}
		}
	}
	JOINT mixamorig:LeftUpLeg
	{
		OFFSET 13.580900 -8.149200 -1.796100
		CHANNELS 3 Xrotation Yrotation Zrotation
		JOINT mixamorig:LeftLeg
		{
			OFFSET 1.779603 -35.946629 -2.676069
			CHANNELS 3 Xrotation Yrotation Zrotation
			JOINT mixamorig:LeftFoot
			{
				OFFSET -1.779600 -26.652353 -2.057156
				CHANNELS 3 Xrotation Yrotation Zrotation
				JOINT mixamorig:LeftToeBase
				{
					OFFSET -1.192457 -6.581663 13.403625
					CHANNELS 3 Xrotation Yrotation Zrotation
					JOINT mixamorig:LeftToe_End
					{
						OFFSET -0.351332 -0.163919 5.937958
						CHANNELS 3 Xrotation Yrotation Zrotation
						End Site
						{
							OFFSET -0.351332 -0.163919 5.937958
						}
					}
				}
			}
		}
	}
	JOINT mixamorig:RightUpLeg
	{
		OFFSET -13.580900 -8.149200 -2.255300
		CHANNELS 3 Xrotation Yrotation Zrotation
		JOINT mixamorig:RightLeg
		{
			OFFSET -1.779582 -35.946686 -2.316831
			CHANNELS 3 Xrotation Yrotation Zrotation
			JOINT mixamorig:RightFoot
			{
				OFFSET 1.779588 -26.652205 -2.090130
				CHANNELS 3 Xrotation Yrotation Zrotation
				JOINT mixamorig:RightToeBase
				{
					OFFSET 1.192391 -6.582412 13.372187
					CHANNELS 3 Xrotation Yrotation Zrotation
					JOINT mixamorig:RightToe_End
					{
						OFFSET 0.351304 -0.164246 5.913598
						CHANNELS 3 Xrotation Yrotation Zrotation
						End Site
						{
							OFFSET 0.351304 -0.164246 5.913598
						}
					}
				}
			}
		}
	}
}
MOTION
Frames: 4
Frame Time: 0.016667
1.506449 75.888069 0.039787 -0.151565 -2.318091 -4.916107 2.476318 -0.432006 1.022257 1.220835 0.568149 5.864919 1.206159 1.079275 5.770736 0.458528 0.810010 -2.856744 13.691492 0.473904 -4.724167 -0.000002 -0.000000 -0.000000 6.351145 -0.362143 -0.909892 -2.910645 26.186020 -82.175338 0.000006 -5.660317 -0.000006 -21.513002 5.329310 11.263264 0.269557 3.729435 10.749361 -1.591545 25.165019 -3.289658 -2.072912 -6.360799 -3.578272 -0.000004 0.000001 -0.000002 0.318947 -6.862700 -0.398129 0.096973 1.743183 -9.467122 0.034611 0.816841 -10.169826 -0.000001 -0.000001 0.000001 -0.264473 0.658522 -6.417252 0.098291 1.795663 -9.759528 0.007524 0.358111 -0.813663 -0.000002 0.000001 0.000001 0.393765 8.249117 -4.557790 0.076480 0.856581 -5.196771 0.544999 1.835328 -19.347011 -0.000005 -0.000000 0.000001 0.039208 11.547112 0.785036 0.007444 0.886938 -10.581598 0.487773 2.856027 -20.553503 0.000005 -0.000001 -0.000001 4.393474 4.312294 6.383083 5.472991 36.831618 16.852097 -0.000001 135.483414 0.000008 -35.091009 24.193678 26.614413 -39.026533 6.301972 -16.499413 -4.063348 -33.160428 -0.567882 15.913767 -19.966458 2.962664 -0.000001 0.000003 -0.000002 0.218235 6.290801 0.477146 0.386886 -2.823203 20.562056 -0.193134 -0.216084 13.841590 0.000001 -0.000003 -0.000002 0.246243 -4.988618 -2.745691 1.110404 -4.273948 36.825597 -0.001971 0.079419 -1.979017 0.000002 0.000002 0.000001 -2.505152 -16.404543 -11.411667 1.494522 -3.665631 37.113616 -0.119724 1.411509 4.386787 -0.000001 0.000000 0.000000 -6.446263 -26.755205 -17.109019 0.577717 -2.872078 31.205659 0.351270 3.098270 -9.320661 0.000000 -0.000002 -0.000001 -23.535408 9.581946 16.895115 32.773017 8.918893 2.239976 -7.571453 8.133196 -10.748382 -1.056590 -0.000002 -0.000002 0.000000 0.000004 0.000000 -1.411252 -3.358048 10.621077 5.345006 -5.845836 3.848234 -3.470912 3.921820 -9.279470 -0.502796 -0.000003 0.000003 0.000000 0.000000 -0.000000 
1.537627 75.885895 0.113245 -0.253007 -1.739629 -4.911412 2.396076 -0.314156 1.105886 1.198462 0.605772 5.889631 1.183896 1.117329 5.795232 0.165306 0.592535 -2.778696 11.686554 -0.327565 -4.689083 -0.000002 -0.000000 0.000000 6.338588 -0.194001 -0.780417 -3.143200 25.495978 -82.516123 0.000003 -5.795220 -0.000010 -21.561065 5.227419 10.040826 0.603711 3.951602 11.578725 -1.266917 26.043573 -3.245395 -1.904687 -5.798015 -3.440791 -0.000001 0.000000 -0.000001 0.271794 -6.067416 -0.630504 0.103789 1.783175 -9.868639 0.034638 0.816822 -10.169816 0.000000 0.000001 -0.000001 -0.288440 0.758562 -6.771346 0.111760 1.879991 -10.613836 0.009485 0.399478 -1.227993 -0.000001 0.000000 0.000000 0.388010 7.932742 -4.669336 0.096354 0.955867 -6.209154 0.545002 1.835330 -19.347016 -0.000005 -0.000000 -0.000000 0.038757 10.883367 0.980880 0.017932 0.983528 -11.545890 0.487803 2.856101 -20.554199 0.000002 0.000000 -0.000001 4.389153 4.330345 6.360218 5.428831 36.823278 16.929840 -0.000006 135.198281 0.000008 -35.161643 24.554644 26.885110 -39.016616 6.324435 -16.526348 -4.063397 -33.171370 -0.593689 15.939244 -19.984070 2.963300 0.000002 0.000001 0.000005 0.093657 6.255465 1.085982 0.386882 -2.823182 20.562016 -0.193138 -0.216106 13.841541 0.000002 0.000002 0.000001 0.245931 -4.993385 -2.739576 1.110317 -4.273835 36.824330 -0.001992 0.078801 -1.972690 0.000000 0.000001 0.000001 -2.505151 -16.404530 -11.411667 1.494589 -3.665708 37.114544 -0.119790 1.411031 4.391537 -0.000000 0.000001 0.000001 -6.446266 -26.755188 -17.108995 0.577927 -2.872511 31.210478 0.350574 3.097211 -9.309465 -0.000001 -0.000000 0.000001 -23.562812 9.583360 16.845968 32.804961 8.917909 2.245288 -7.610761 7.565068 -10.651213 -1.051071 -0.000008 0.000001 0.000000 0.000004 -0.000000 -1.102513 -3.364543 10.654024 5.187185 -5.896551 3.814525 -3.604757 3.454518 -9.260510 -0.536512 -0.000004 0.000000 -0.000000 0.000000 -0.000000 
1.567095 75.881355 0.183334 -0.362633 -1.090097 -4.905208 2.322045 -0.165455 1.216541 1.181351 0.651081 5.907200 1.167159 1.162679 5.812613 -0.101732 0.362695 -2.708596 9.754583 -1.235440 -4.650747 -0.000000 0.000000 0.000000 6.338076 -0.129413 -0.756652 -3.384720 24.778183 -82.743138 0.000009 -5.965146 -0.000015 -21.651732 5.133202 8.831800 1.031246 4.123390 12.359196 -0.942373 26.917559 -3.206566 -1.717659 -5.165924 -3.288633 -0.000002 0.000000 0.000003 0.226328 -5.244844 -0.897572 0.111765 1.827971 -10.319238 0.034630 0.816825 -10.169813 0.000002 0.000000 -0.000000 -0.309948 0.908011 -7.165130 0.128410 1.974406 -11.572777 0.012004 0.445883 -1.693046 0.000004 -0.000000 -0.000000 0.387683 7.663104 -4.922519 0.121803 1.071440 -7.392430 0.544986 1.835330 -19.347030 -0.000001 0.000000 -0.000000 0.063176 10.309515 0.915572 0.032396 1.097388 -12.684866 0.487832 2.856144 -20.554660 0.000001 -0.000000 0.000000 4.394091 4.269173 6.242442 5.370351 36.764019 17.104500 0.000019 134.890253 -0.000029 -35.240078 25.020912 27.175007 -39.010438 6.338315 -16.543043 -4.063464 -33.178173 -0.609731 15.955011 -19.994984 2.963693 -0.000000 0.000002 0.000001 -0.002428 6.213065 1.726088 0.386890 -2.823175 20.561977 -0.193136 -0.216105 13.841535 0.000001 0.000001 0.000001 0.245745 -4.996370 -2.735782 1.110263 -4.273785 36.823517 -0.002007 0.078404 -1.968779 -0.000000 0.000002 -0.000000 -2.505153 -16.404545 -11.411657 1.494633 -3.665739 37.115118 -0.119845 1.410731 4.394491 0.000001 0.000000 -0.000001 -6.446271 -26.755202 -17.109004 0.578077 -2.872773 31.213442 0.350125 3.096576 -9.302516 0.000000 -0.000001 -0.000002 -23.616248 9.585389 16.779813 32.842616 8.821941 2.286315 -7.635927 7.025472 -10.547202 -1.042645 0.000008 -0.000001 0.000000 0.000002 0.000001 -0.769950 -3.371445 10.694144 5.010099 -5.969453 3.790650 -3.743807 2.943464 -9.255655 -0.567751 -0.000001 -0.000002 -0.000000 0.000000 -0.000000 
1.595767 75.874352 0.249509 -0.478746 -0.382391 -4.897809 2.257575 -0.000619 1.343855 1.169361 0.699755 5.918297 1.155745 1.211094 5.823561 -0.346061 0.126619 -2.646101 7.915918 -2.214952 -4.619693 -0.000001 -0.000000 -0.000000 6.349701 -0.159384 -0.832178 -3.627009 24.030050 -82.856895 0.000005 -6.172284 0.000027 -21.779206 5.051517 7.638312 1.550392 4.241090 13.069414 -0.624767 27.768044 -3.173866 -1.515038 -4.473327 -3.124553 -0.000001 0.000004 -0.000002 0.184830 -4.410656 -1.195932 0.120915 1.876946 -10.812639 0.034622 0.816841 -10.169826 -0.000002 0.000001 -0.000000 -0.327203 1.106832 -7.592883 0.148414 2.077424 -12.622770 0.015201 0.496693 -2.202228 0.000002 -0.000000 -0.000000 0.391685 7.448961 -5.320671 0.153511 1.201682 -8.732611 0.544986 1.835322 -19.346999 -0.000004 0.000001 0.000001 0.105065 9.844159 0.576879 0.051697 1.227006 -13.985502 0.487837 2.856152 -20.554893 0.000001 0.000001 -0.000000 4.405902 4.145232 6.052523 5.334789 36.626326 17.309653 0.000006 134.596965 -0.000006 -35.322678 25.441044 27.318291 -39.008320 6.343090 -16.548758 -4.063481 -33.180485 -0.615203 15.960398 -19.998732 2.963819 0.000001 0.000006 0.000006 -0.082822 6.164065 2.396817 0.386888 -2.823191 20.561948 -0.193126 -0.216077 13.841543 -0.000001 -0.000003 -0.000000 0.245676 -4.997392 -2.734502 1.110256 -4.273744 36.823247 -0.002016 0.078267 -1.967429 0.000002 -0.000001 -0.000001 -2.505149 -16.404533 -11.411656 1.494635 -3.665769 37.115316 -0.119844 1.410629 4.395490 0.000001 -0.000000 -0.000001 -6.446271 -26.755198 -17.109014 0.578116 -2.872879 31.214473 0.349997 3.096348 -9.300141 0.000001 -0.000002 -0.000000 -23.693923 9.585883 16.691538 32.886999 8.598038 2.370969 -7.646440 6.565688 -10.437445 -1.029402 -0.000009 -0.000003 0.000000 0.000002 -0.000001 -0.415920 -3.381713 10.740649 4.810414 -6.054024 3.777211 -3.882224 2.393563 -9.265236 -0.597412 -0.000001 0.000003 -0.000000 -0.000000 -0.000000 
